<?xml version="1.0" encoding="utf-8"?><svg xmlns="http://www.w3.org/2000/svg" xmlns:xlink="http://www.w3.org/1999/xlink"><symbol viewBox="0 0 20 20" id="directions_car" xmlns="http://www.w3.org/2000/svg">
    <mask id="amask0_23_20282" style="mask-type:alpha" maskUnits="userSpaceOnUse" x="0" y="0" width="20" height="20">
        <rect width="20" height="20"/>
    </mask>
    <g mask="url(#amask0_23_20282)">
        <path d="M5 15.8333V16.25C5 16.5972 4.87847 16.8923 4.63542 17.1354C4.39236 17.3784 4.09722 17.5 3.75 17.5C3.40278 17.5 3.10764 17.3784 2.86458 17.1354C2.62153 16.8923 2.5 16.5972 2.5 16.25V10.2916C2.5 10.1944 2.50694 10.0972 2.52083 9.99996C2.53472 9.90274 2.55556 9.81246 2.58333 9.72913L4.14583 5.29163C4.25694 4.95829 4.45833 4.68746 4.75 4.47913C5.04167 4.27079 5.36806 4.16663 5.72917 4.16663H14.2708C14.6319 4.16663 14.9583 4.27079 15.25 4.47913C15.5417 4.68746 15.7431 4.95829 15.8542 5.29163L17.4167 9.72913C17.4444 9.81246 17.4653 9.90274 17.4792 9.99996C17.4931 10.0972 17.5 10.1944 17.5 10.2916V16.25C17.5 16.5972 17.3785 16.8923 17.1354 17.1354C16.8924 17.3784 16.5972 17.5 16.25 17.5C15.9028 17.5 15.6076 17.3784 15.3646 17.1354C15.1215 16.8923 15 16.5972 15 16.25V15.8333H5ZM4.83333 8.33329H15.1667L14.2917 5.83329H5.70833L4.83333 8.33329ZM6.25 13.3333C6.59722 13.3333 6.89236 13.2118 7.13542 12.9687C7.37847 12.7257 7.5 12.4305 7.5 12.0833C7.5 11.7361 7.37847 11.4409 7.13542 11.1979C6.89236 10.9548 6.59722 10.8333 6.25 10.8333C5.90278 10.8333 5.60764 10.9548 5.36458 11.1979C5.12153 11.4409 5 11.7361 5 12.0833C5 12.4305 5.12153 12.7257 5.36458 12.9687C5.60764 13.2118 5.90278 13.3333 6.25 13.3333ZM13.75 13.3333C14.0972 13.3333 14.3924 13.2118 14.6354 12.9687C14.8785 12.7257 15 12.4305 15 12.0833C15 11.7361 14.8785 11.4409 14.6354 11.1979C14.3924 10.9548 14.0972 10.8333 13.75 10.8333C13.4028 10.8333 13.1076 10.9548 12.8646 11.1979C12.6215 11.4409 12.5 11.7361 12.5 12.0833C12.5 12.4305 12.6215 12.7257 12.8646 12.9687C13.1076 13.2118 13.4028 13.3333 13.75 13.3333Z"/>
    </g>
</symbol><symbol viewBox="0 0 20 20" id="family__star" xmlns="http://www.w3.org/2000/svg">
    <mask id="bmask0_23_20255" style="mask-type:alpha" maskUnits="userSpaceOnUse" x="0" y="0" width="20" height="20">
        <rect width="20" height="20"/>
    </mask>
    <g mask="url(#bmask0_23_20255)">
        <path d="M9.99999 13.3333C10.6667 13.3333 11.2604 13.1354 11.7812 12.7395C12.3021 12.3437 12.6805 11.8333 12.9167 11.2083H7.08332C7.31943 11.8333 7.69791 12.3437 8.21874 12.7395C8.73957 13.1354 9.33332 13.3333 9.99999 13.3333ZM7.91666 9.99996C8.26388 9.99996 8.55902 9.87843 8.80207 9.63538C9.04513 9.39232 9.16666 9.09718 9.16666 8.74996C9.16666 8.40274 9.04513 8.1076 8.80207 7.86454C8.55902 7.62149 8.26388 7.49996 7.91666 7.49996C7.56943 7.49996 7.2743 7.62149 7.03124 7.86454C6.78818 8.1076 6.66666 8.40274 6.66666 8.74996C6.66666 9.09718 6.78818 9.39232 7.03124 9.63538C7.2743 9.87843 7.56943 9.99996 7.91666 9.99996ZM12.0833 9.99996C12.4305 9.99996 12.7257 9.87843 12.9687 9.63538C13.2118 9.39232 13.3333 9.09718 13.3333 8.74996C13.3333 8.40274 13.2118 8.1076 12.9687 7.86454C12.7257 7.62149 12.4305 7.49996 12.0833 7.49996C11.7361 7.49996 11.441 7.62149 11.1979 7.86454C10.9549 8.1076 10.8333 8.40274 10.8333 8.74996C10.8333 9.09718 10.9549 9.39232 11.1979 9.63538C11.441 9.87843 11.7361 9.99996 12.0833 9.99996ZM6.35416 5.33329L8.68749 2.31246C8.85416 2.09024 9.05207 1.92704 9.28124 1.82288C9.51041 1.71871 9.74999 1.66663 9.99999 1.66663C10.25 1.66663 10.4896 1.71871 10.7187 1.82288C10.9479 1.92704 11.1458 2.09024 11.3125 2.31246L13.6458 5.33329L17.1875 6.52079C17.5486 6.6319 17.8333 6.83676 18.0417 7.13538C18.25 7.43399 18.3542 7.76385 18.3542 8.12496C18.3542 8.29163 18.3299 8.45829 18.2812 8.62496C18.2326 8.79163 18.1528 8.95135 18.0417 9.10413L15.75 12.3541L15.8333 15.7708C15.8472 16.2569 15.6875 16.6666 15.3542 17C15.0208 17.3333 14.6319 17.5 14.1875 17.5C14.1597 17.5 14.0069 17.4791 13.7292 17.4375L9.99999 16.3958L6.27082 17.4375C6.20138 17.4652 6.12499 17.4826 6.04166 17.4895C5.95832 17.4965 5.88193 17.5 5.81249 17.5C5.36805 17.5 4.97916 17.3333 4.64582 17C4.31249 16.6666 4.15277 16.2569 4.16666 15.7708L4.24999 12.3333L1.97916 9.10413C1.86805 8.95135 1.78818 8.79163 1.73957 8.62496C1.69096 8.45829 1.66666 8.29163 1.66666 8.12496C1.66666 7.77774 1.76735 7.45482 1.96874 7.15621C2.17013 6.8576 2.45138 6.64579 2.81249 6.52079L6.35416 5.33329Z"/>
    </g>
</symbol><symbol viewBox="0 0 24 25" id="heart" xmlns="http://www.w3.org/2000/svg">
    <path fill-rule="evenodd" clip-rule="evenodd" d="M12.6924 7.58373C12.3055 7.95505 11.6945 7.95505 11.3076 7.58373L10.6152 6.91927C9.80477 6.14154 8.70994 5.66667 7.5 5.66667C5.01472 5.66667 3 7.68139 3 10.1667C3 12.5493 4.28979 14.5167 6.15176 16.1332C8.01532 17.7511 10.2434 18.8241 11.5746 19.3717C11.853 19.4862 12.147 19.4862 12.4254 19.3717C13.7566 18.8241 15.9847 17.7511 17.8482 16.1332C19.7102 14.5167 21 12.5493 21 10.1667C21 7.68139 18.9853 5.66667 16.5 5.66667C15.2901 5.66667 14.1952 6.14154 13.3848 6.91927L12.6924 7.58373ZM12 5.47624C10.8321 4.35548 9.24649 3.66667 7.5 3.66667C3.91015 3.66667 1 6.57682 1 10.1667C1 16.5349 7.97034 20.0517 10.8138 21.2214C11.5796 21.5364 12.4204 21.5364 13.1862 21.2214C16.0297 20.0517 23 16.5349 23 10.1667C23 6.57682 20.0899 3.66667 16.5 3.66667C14.7535 3.66667 13.1679 4.35548 12 5.47624Z"/>
</symbol><symbol viewBox="0 0 24 24" id="heart-line" xmlns="http://www.w3.org/2000/svg">
    <path d="M12.001 4.52853C14.35 2.42 17.98 2.49 20.2426 4.75736C22.5053 7.02472 22.583 10.637 20.4786 12.993L11.9999 21.485L3.52138 12.993C1.41705 10.637 1.49571 7.01901 3.75736 4.75736C6.02157 2.49315 9.64519 2.41687 12.001 4.52853ZM18.827 6.1701C17.3279 4.66794 14.9076 4.60701 13.337 6.01687L12.0019 7.21524L10.6661 6.01781C9.09098 4.60597 6.67506 4.66808 5.17157 6.17157C3.68183 7.66131 3.60704 10.0473 4.97993 11.6232L11.9999 18.6543L19.0201 11.6232C20.3935 10.0467 20.319 7.66525 18.827 6.1701Z"/>
</symbol><symbol viewBox="0 -960 960 960" id="icon__arrow" xmlns="http://www.w3.org/2000/svg">
    <path d="M504-480 320-664l56-56 240 240-240 240-56-56 184-184Z"/>
</symbol><symbol viewBox="0 0 20 20" id="icon__restaurant" xmlns="http://www.w3.org/2000/svg">
    <mask id="fmask0_23_20268" style="mask-type:alpha" maskUnits="userSpaceOnUse" x="0" y="0" width="20" height="20">
        <rect width="20" height="20"/>
    </mask>
    <g mask="url(#fmask0_23_20268)">
        <path d="M9.97921 11.2084L4.22921 16.9167C4.07643 17.0695 3.88546 17.1493 3.6563 17.1563C3.42713 17.1632 3.22921 17.0834 3.06255 16.9167C2.90977 16.7639 2.83338 16.5695 2.83338 16.3334C2.83338 16.0972 2.90977 15.9028 3.06255 15.75L11.0209 7.79168C10.7709 7.20835 10.7362 6.54863 10.9167 5.81252C11.0973 5.07641 11.4931 4.41668 12.1042 3.83335C12.8403 3.09724 13.6598 2.66668 14.5625 2.54168C15.4653 2.41668 16.2014 2.63891 16.7709 3.20835C17.3403 3.7778 17.5625 4.51391 17.4375 5.41668C17.3125 6.31946 16.882 7.13891 16.1459 7.87502C15.5625 8.48613 14.9028 8.88196 14.1667 9.06252C13.4306 9.24307 12.7709 9.20835 12.1875 8.95835L11.1459 10L16.8959 15.75C17.0487 15.9028 17.1285 16.0938 17.1355 16.3229C17.1424 16.5521 17.0625 16.75 16.8959 16.9167C16.7431 17.0695 16.5487 17.1459 16.3125 17.1459C16.0764 17.1459 15.882 17.0695 15.7292 16.9167L9.97921 11.2084ZM6.10421 10.375L3.60421 7.87502C3.02088 7.29168 2.65282 6.55557 2.50005 5.66668C2.34727 4.7778 2.52088 3.98613 3.02088 3.29168C3.17366 3.08335 3.37852 2.9653 3.63546 2.93752C3.89241 2.90974 4.11116 2.99307 4.29171 3.18752L8.77088 7.70835L6.10421 10.375Z"/>
    </g>
</symbol><symbol viewBox="0 0 22 22" id="icon__search" xmlns="http://www.w3.org/2000/svg">
    <path d="M21.7813 20.1308L15.9688 14.3183C17.3741 12.4644 17.9858 10.1283 17.6694 7.8236C17.353 5.51888 16.1343 3.43413 14.2813 2.02763C12.4335 0.618733 10.102 0.00111443 7.79911 0.310512C5.49621 0.61991 3.41037 1.83101 2.00002 3.67763C0.711906 5.36455 0.0796138 7.46154 0.220521 9.57934C0.361427 11.6971 1.26596 13.6919 2.76621 15.1933C4.26646 16.6947 6.26051 17.6007 8.3782 17.7433C10.4959 17.8858 12.5934 17.2551 14.2813 15.9683L20.0938 21.7808L21.7813 20.1308ZM9.0219 15.3776C7.76661 15.3795 6.53896 15.0091 5.49419 14.3132C4.44942 13.6173 3.63447 12.6273 3.15237 11.4683C2.67028 10.3092 2.54271 9.03327 2.78579 7.80174C3.02886 6.57021 3.63167 5.43841 4.51799 4.54948C5.4043 3.66054 6.53431 3.05439 7.76512 2.80768C8.99593 2.56096 10.2723 2.68476 11.4327 3.16343C12.5932 3.6421 13.5856 4.45412 14.2845 5.49683C14.9835 6.53954 15.3575 7.76609 15.3594 9.02138C15.3606 9.85486 15.1977 10.6804 14.8799 11.4509C14.562 12.2214 14.0956 12.9218 13.5071 13.512C12.9186 14.1023 12.2196 14.5708 11.45 14.8909C10.6805 15.211 9.85538 15.3764 9.0219 15.3776Z"/>
</symbol><symbol viewBox="0 0 24 24" id="id-card-line" xmlns="http://www.w3.org/2000/svg">
    <path d="M3 6H21V18H3V6ZM2 4C1.44772 4 1 4.44772 1 5V19C1 19.5523 1.44772 20 2 20H22C22.5523 20 23 19.5523 23 19V5C23 4.44772 22.5523 4 22 4H2ZM13 8H19V10H13V8ZM18 12H13V14H18V12ZM10.5 10C10.5 11.3807 9.38071 12.5 8 12.5C6.61929 12.5 5.5 11.3807 5.5 10C5.5 8.61929 6.61929 7.5 8 7.5C9.38071 7.5 10.5 8.61929 10.5 10ZM8 13.5C6.067 13.5 4.5 15.067 4.5 17H11.5C11.5 15.067 9.933 13.5 8 13.5Z"/>
</symbol><symbol viewBox="0 0 20 20" id="receipt_long" xmlns="http://www.w3.org/2000/svg">
    <mask id="imask0_23_20276" style="mask-type:alpha" maskUnits="userSpaceOnUse" x="0" y="0" width="20" height="20">
        <rect width="20" height="20"/>
    </mask>
    <g mask="url(#imask0_23_20276)">
        <path d="M4.99997 17.9166C4.41772 17.9166 3.92493 17.715 3.52161 17.3117C3.11831 16.9083 2.91666 16.4156 2.91666 15.8333V14.5032C2.91666 14.2885 2.98851 14.1093 3.13222 13.9656C3.27591 13.8219 3.45513 13.75 3.66986 13.75H5.41666V2.65545C5.41666 2.56893 5.45165 2.51097 5.52164 2.48158C5.59161 2.4522 5.65865 2.46423 5.72276 2.51764L6.33493 3.02564C6.40758 3.08761 6.48611 3.1186 6.57051 3.1186C6.65491 3.1186 6.73343 3.08761 6.80607 3.02564L7.5048 2.45514C7.57746 2.39317 7.65598 2.36218 7.74037 2.36218C7.82477 2.36218 7.9033 2.39317 7.97595 2.45514L8.67466 3.02564C8.74731 3.08761 8.82584 3.1186 8.91024 3.1186C8.99464 3.1186 9.07316 3.08761 9.1458 3.02564L9.84453 2.45514C9.91718 2.39317 9.99571 2.36218 10.0801 2.36218C10.1645 2.36218 10.243 2.39317 10.3157 2.45514L11.0144 3.02564C11.087 3.08761 11.1656 3.1186 11.25 3.1186C11.3344 3.1186 11.4129 3.08761 11.4855 3.02564L12.1843 2.45514C12.2569 2.39317 12.3354 2.36218 12.4198 2.36218C12.5042 2.36218 12.5828 2.39317 12.6554 2.45514L13.3541 3.02564C13.4268 3.08761 13.5053 3.1186 13.5897 3.1186C13.6741 3.1186 13.7526 3.08761 13.8253 3.02564L14.524 2.45514C14.5966 2.39317 14.6752 2.36218 14.7596 2.36218C14.844 2.36218 14.9225 2.39317 14.9951 2.45514L15.6939 3.02564C15.7665 3.08761 15.845 3.1186 15.9294 3.1186C16.0138 3.1186 16.0924 3.08761 16.165 3.02564L16.7772 2.51764C16.8413 2.46423 16.9083 2.4522 16.9783 2.48158C17.0483 2.51097 17.0833 2.56893 17.0833 2.65545V15.8333C17.0833 16.4156 16.8816 16.9083 16.4783 17.3117C16.075 17.715 15.5822 17.9166 15 17.9166H4.99997ZM15 16.6666C15.2361 16.6666 15.434 16.5868 15.5937 16.4271C15.7534 16.2673 15.8333 16.0694 15.8333 15.8333V4.16664H6.66664V13.75H13.4134C13.6282 13.75 13.8074 13.8219 13.9511 13.9656C14.0948 14.1093 14.1666 14.2885 14.1666 14.5032V15.8333C14.1666 16.0694 14.2465 16.2673 14.4062 16.4271C14.5659 16.5868 14.7639 16.6666 15 16.6666ZM8.28522 6.04166H11.7628C11.9402 6.04166 12.0886 6.10149 12.2083 6.22114C12.328 6.3408 12.3878 6.48929 12.3878 6.66664C12.3878 6.84399 12.328 6.99249 12.2083 7.11214C12.0886 7.23179 11.9402 7.29162 11.7628 7.29162H8.28522C8.10787 7.29162 7.95937 7.23179 7.83972 7.11214C7.72007 6.99249 7.66024 6.84399 7.66024 6.66664C7.66024 6.48929 7.72007 6.3408 7.83972 6.22114C7.95937 6.10149 8.10787 6.04166 8.28522 6.04166ZM8.28522 8.54166H11.7628C11.9402 8.54166 12.0886 8.60149 12.2083 8.72114C12.328 8.8408 12.3878 8.9893 12.3878 9.16664C12.3878 9.34399 12.328 9.49249 12.2083 9.61214C12.0886 9.73179 11.9402 9.79162 11.7628 9.79162H8.28522C8.10787 9.79162 7.95937 9.73179 7.83972 9.61214C7.72007 9.49249 7.66024 9.34399 7.66024 9.16664C7.66024 8.9893 7.72007 8.8408 7.83972 8.72114C7.95937 8.60149 8.10787 8.54166 8.28522 8.54166ZM14.1186 7.40381C13.9145 7.40381 13.7406 7.33196 13.5969 7.18827C13.4532 7.04457 13.3814 6.8707 13.3814 6.66664C13.3814 6.46259 13.4532 6.28871 13.5969 6.14502C13.7406 6.00132 13.9145 5.92948 14.1186 5.92948C14.3226 5.92948 14.4965 6.00132 14.6402 6.14502C14.7839 6.28871 14.8557 6.46259 14.8557 6.66664C14.8557 6.8707 14.7839 7.04457 14.6402 7.18827C14.4965 7.33196 14.3226 7.40381 14.1186 7.40381ZM14.1186 9.90381C13.9145 9.90381 13.7406 9.83196 13.5969 9.68827C13.4532 9.54457 13.3814 9.3707 13.3814 9.16664C13.3814 8.96259 13.4532 8.78871 13.5969 8.64502C13.7406 8.50132 13.9145 8.42948 14.1186 8.42948C14.3226 8.42948 14.4965 8.50132 14.6402 8.64502C14.7839 8.78871 14.8557 8.96259 14.8557 9.16664C14.8557 9.3707 14.7839 9.54457 14.6402 9.68827C14.4965 9.83196 14.3226 9.90381 14.1186 9.90381ZM4.99997 16.6666H12.9167V15H4.16664V15.8333C4.16664 16.0694 4.2465 16.2673 4.40622 16.4271C4.56594 16.5868 4.76386 16.6666 4.99997 16.6666Z"/>
    </g>
</symbol><symbol viewBox="0 0 24 24" id="search" xmlns="http://www.w3.org/2000/svg">
    <path d="M18.5 18.5L22 22M21 11.5C21 6.25329 16.7467 2 11.5 2C6.25329 2 2 6.25329 2 11.5C2 16.7467 6.25329 21 11.5 21C16.7467 21 21 16.7467 21 11.5Z" stroke-width="1.5" stroke-linecap="round" stroke-linejoin="round"/>
</symbol><symbol viewBox="0 0 24 24" id="search-line" xmlns="http://www.w3.org/2000/svg">
    <path d="M18.031 16.6168L22.3137 20.8995L20.8995 22.3137L16.6168 18.031C15.0769 19.263 13.124 20 11 20C6.032 20 2 15.968 2 11C2 6.032 6.032 2 11 2C15.968 2 20 6.032 20 11C20 13.124 19.263 15.0769 18.031 16.6168ZM16.0247 15.8748C17.2475 14.6146 18 12.8956 18 11C18 7.1325 14.8675 4 11 4C7.1325 4 4 7.1325 4 11C4 14.8675 7.1325 18 11 18C12.8956 18 14.6146 17.2475 15.8748 16.0247L16.0247 15.8748Z"/>
</symbol><symbol viewBox="0 0 24 24" id="user" xmlns="http://www.w3.org/2000/svg">
    <path d="M18.5588 19.5488C17.5654 16.8918 15.0036 15 12 15C8.99638 15 6.4346 16.8918 5.44117 19.5488M18.5588 19.5488C20.6672 17.7154 22 15.0134 22 12C22 6.47715 17.5228 2 12 2C6.47715 2 2 6.47715 2 12C2 15.0134 3.33285 17.7154 5.44117 19.5488M18.5588 19.5488C16.8031 21.0756 14.5095 22 12 22C9.49052 22 7.19694 21.0756 5.44117 19.5488M15 9C15 10.6569 13.6569 12 12 12C10.3431 12 9 10.6569 9 9C9 7.34315 10.3431 6 12 6C13.6569 6 15 7.34315 15 9Z" stroke-width="1.5" stroke-linejoin="round"/>
</symbol><symbol viewBox="0 0 24 24" id="user-star-line" xmlns="http://www.w3.org/2000/svg">
    <path d="M12 14V16C8.68629 16 6 18.6863 6 22H4C4 17.5817 7.58172 14 12 14ZM12 13C8.685 13 6 10.315 6 7C6 3.685 8.685 1 12 1C15.315 1 18 3.685 18 7C18 10.315 15.315 13 12 13ZM12 11C14.21 11 16 9.21 16 7C16 4.79 14.21 3 12 3C9.79 3 8 4.79 8 7C8 9.21 9.79 11 12 11ZM18 21.5L15.0611 23.0451L15.6224 19.7725L13.2447 17.4549L16.5305 16.9775L18 14L19.4695 16.9775L22.7553 17.4549L20.3776 19.7725L20.9389 23.0451L18 21.5Z"/>
</symbol><symbol id="website" enable-background="new 0 0 497 497" viewBox="0 0 497 497" xmlns="http://www.w3.org/2000/svg">
    <g>
        <path d="m497 128.5v312c0 11.046-8.954 20-20 20h-457c-11.046 0-20-8.954-20-20v-312z"/>
        <g>
            <path d="m290.498 294.5c0-23.196-18.804-42-42-42-7.031 0-13.659 1.728-19.482 4.782-13.386 7.021-19.327 21.053-19.327 37.218 0 23.196 15.613 36.457 38.809 36.457 16.214 0 30.282-3.645 37.282-17.099 3.014-5.792 4.718-12.376 4.718-19.358z"/>
            <path d="m286.468 312.47c-6.73 14.21-21.2 24.03-37.97 24.03-23.2 0-42-18.8-42-42 0-16.77 9.82-31.24 24.03-37.97-2.59 5.45-4.03 11.54-4.03 17.97 0 23.2 18.8 42 42 42 6.43 0 12.52-1.44 17.97-4.03z"/>
        </g>
        <g>
            <path d="m429.496 294.5c0-23.196-18.804-42-42-42-7.031 0-13.659 1.728-19.482 4.782-13.386 7.021-19.327 21.053-19.327 37.218 0 23.196 15.613 36.457 38.809 36.457 16.214 0 30.282-3.645 37.282-17.099 3.014-5.792 4.718-12.376 4.718-19.358z"/>
            <path d="m425.466 312.47c-6.73 14.21-21.2 24.03-37.97 24.03-23.2 0-42-18.8-42-42 0-16.77 9.82-31.24 24.03-37.97-2.59 5.45-4.03 11.54-4.03 17.97 0 23.2 18.8 42 42 42 6.43 0 12.52-1.44 17.97-4.03z"/>
        </g>
        <path d="m497 148.5v-20l-276.011-12.798-220.989 12.798v20 292c0 11.046 8.954 20 20 20h15c-8.28 0-15-6.72-15-15v-291c0-3.314 2.686-6 6-6z"/>
        <g>
            <path d="m497 56.5v72.5h-497v-72.5c0-11.046 8.954-20 20-20h457c11.046 0 20 8.954 20 20z"/>
            <g>
                <path d="m227.758 108.5c-8.255 0-14.947-6.716-14.947-15s6.692-15 14.947-15h208.315c8.255 0 14.947 6.716 14.947 15s-6.692 15-14.947 15z"/>
                <ellipse cx="160.869" cy="93.5" rx="14.947" ry="15"/>
                <path d="m171.361 104.184 12.874-12.869-13.139 1.179z"/>
                <path d="m150.592 82.608 12.562-12.516-2.693 10.408z"/>
                <ellipse cx="98.034" cy="93.5" rx="14.947" ry="15"/>
                <path d="m108.553 104.157 12.382-12.499-12.674.836z"/>
                <path d="m87.757 82.608 12.371-12.459-2.502 10.351z"/>
                <ellipse cx="32.947" cy="93.5" rx="14.947" ry="15"/>
                <path d="m43.769 103.846 12.721-13.186-13.139 1.381z"/>
                <path d="m22.67 82.608 11.622-12.038-1.753 9.93z"/>
            </g>
            <ellipse cx="173.849" cy="80.5" rx="14.947" ry="15"/>
            <path d="m217.514 82.577 12.971-12.991-3.025 14.276z"/>
            <path d="m446.83 103.915 13.149-13.179-10.185 3.381z"/>
            <ellipse cx="110.946" cy="80.5" rx="14.947" ry="15"/>
            <ellipse cx="45.495" cy="80.5" rx="14.947" ry="15"/>
            <path d="m240.737 95.5c-8.255 0-14.947-6.716-14.947-15s6.692-15 14.947-15h208.315c8.255 0 14.947 6.716 14.947 15s-6.692 15-14.947 15z"/>
        </g>
        <path d="m135.893 215 226.628 2c5.523 0 10-4.477 10-10l3.479-7v-30c0-5.523-4.477-10-10-10h-224l-6.107 5c-5.523 0-10 4.477-10 10v30c0 5.523 4.477 10 10 10z"/>
        <path d="m376 200v10c0 5.523-4.477 10-10 10h-234c-5.523 0-10-4.477-10-10v-40c0-5.523 4.477-10 10-10h10v33c0 3.866 3.134 7 7 7z"/>
        <g>
            <path d="m151.5 294.5c0-23.196-18.804-42-42-42-7.031 0-13.659 1.728-19.482 4.782-13.386 7.021-19.327 21.053-19.327 37.218 0 23.196 15.613 36.457 38.809 36.457 16.214 0 30.282-3.645 37.282-17.099 3.014-5.792 4.718-12.376 4.718-19.358z"/>
            <path d="m147.47 312.47c-6.73 14.21-21.2 24.03-37.97 24.03-23.2 0-42-18.8-42-42 0-16.77 9.82-31.24 24.03-37.97-2.59 5.45-4.03 11.54-4.03 17.97 0 23.2 18.8 42 42 42 6.43 0 12.52-1.44 17.97-4.03z"/>
        </g>
        <g>
            <g>
                <path d="m149.5 374h-70c-4.142 0-7.5-3.358-7.5-7.5s3.358-7.5 7.5-7.5h70c4.142 0 7.5 3.358 7.5 7.5s-3.358 7.5-7.5 7.5z"/>
            </g>
            <g>
                <path d="m149.5 404h-80c-4.142 0-7.5-3.358-7.5-7.5s3.358-7.5 7.5-7.5h80c4.142 0 7.5 3.358 7.5 7.5s-3.358 7.5-7.5 7.5z"/>
            </g>
            <g>
                <path d="m149.5 434h-80c-4.142 0-7.5-3.358-7.5-7.5s3.358-7.5 7.5-7.5h80c4.142 0 7.5 3.358 7.5 7.5s-3.358 7.5-7.5 7.5z"/>
            </g>
        </g>
        <g>
            <g>
                <path d="m288.5 374h-70c-4.142 0-7.5-3.358-7.5-7.5s3.358-7.5 7.5-7.5h70c4.143 0 7.5 3.358 7.5 7.5s-3.357 7.5-7.5 7.5z"/>
            </g>
            <g>
                <path d="m288.5 404h-80c-4.142 0-7.5-3.358-7.5-7.5s3.358-7.5 7.5-7.5h80c4.143 0 7.5 3.358 7.5 7.5s-3.357 7.5-7.5 7.5z"/>
            </g>
            <g>
                <path d="m288.5 434h-80c-4.142 0-7.5-3.358-7.5-7.5s3.358-7.5 7.5-7.5h80c4.143 0 7.5 3.358 7.5 7.5s-3.357 7.5-7.5 7.5z"/>
            </g>
        </g>
        <g>
            <g>
                <path d="m427.5 374h-70c-4.143 0-7.5-3.358-7.5-7.5s3.357-7.5 7.5-7.5h70c4.143 0 7.5 3.358 7.5 7.5s-3.357 7.5-7.5 7.5z"/>
            </g>
            <g>
                <path d="m427.5 404h-80c-4.143 0-7.5-3.358-7.5-7.5s3.357-7.5 7.5-7.5h80c4.143 0 7.5 3.358 7.5 7.5s-3.357 7.5-7.5 7.5z"/>
            </g>
            <g>
                <path d="m427.5 434h-80c-4.143 0-7.5-3.358-7.5-7.5s3.357-7.5 7.5-7.5h80c4.143 0 7.5 3.358 7.5 7.5s-3.357 7.5-7.5 7.5z"/>
            </g>
        </g>
    </g>
</symbol></svg>