<?xml version="1.0" encoding="utf-8"?><svg viewBox="0 0 512 512" xmlns="http://www.w3.org/2000/svg" xmlns:xlink="http://www.w3.org/1999/xlink"><style>:root>svg{display:none}:root>svg:target{display:block}</style><svg fill="none" viewBox="0 0 20 20" id="directions_car" xmlns="http://www.w3.org/2000/svg"><mask id="aa" style="mask-type:alpha" maskUnits="userSpaceOnUse" x="0" y="0" width="20" height="20"><path fill="#D9D9D9" d="M0 0h20v20H0z"/></mask><g mask="url(#aa)"><path d="M5 15.833v.417c0 .347-.122.642-.365.885a1.206 1.206 0 0 1-.885.365c-.347 0-.642-.122-.885-.365a1.206 1.206 0 0 1-.365-.885v-5.958c0-.098.007-.195.02-.292.015-.097.036-.188.063-.27l1.563-4.438c.11-.334.312-.605.604-.813.292-.208.618-.312.98-.312h8.54c.362 0 .688.104.98.312.292.208.493.48.604.813l1.563 4.437c.027.083.048.174.062.271.014.097.021.194.021.292v5.958c0 .347-.122.642-.365.885a1.206 1.206 0 0 1-.885.365c-.347 0-.642-.122-.885-.365A1.205 1.205 0 0 1 15 16.25v-.417H5Zm-.167-7.5h10.334l-.875-2.5H5.708l-.875 2.5Zm1.417 5c.347 0 .642-.121.885-.364s.365-.538.365-.886c0-.347-.122-.642-.365-.885a1.205 1.205 0 0 0-.885-.365c-.347 0-.642.122-.885.365a1.205 1.205 0 0 0-.365.885c0 .348.122.643.365.886s.538.364.885.364Zm7.5 0c.347 0 .642-.121.885-.364.244-.243.365-.538.365-.886 0-.347-.121-.642-.365-.885a1.205 1.205 0 0 0-.885-.365c-.347 0-.642.122-.885.365a1.205 1.205 0 0 0-.365.885c0 .348.121.643.365.886.243.243.538.364.885.364Z" fill="#584B4D"/></g></svg><svg fill="none" viewBox="0 0 20 20" id="family__star" xmlns="http://www.w3.org/2000/svg"><mask id="ba" style="mask-type:alpha" maskUnits="userSpaceOnUse" x="0" y="0" width="20" height="20"><path fill="#D9D9D9" d="M0 0h20v20H0z"/></mask><g mask="url(#ba)"><path d="M10 13.333c.667 0 1.26-.198 1.781-.594.521-.395.9-.906 1.136-1.53H7.083a3.385 3.385 0 0 0 1.136 1.53c.52.396 1.114.594 1.781.594ZM7.917 10c.347 0 .642-.122.885-.365s.365-.538.365-.885-.122-.642-.365-.885a1.205 1.205 0 0 0-.885-.365c-.348 0-.643.121-.886.365a1.205 1.205 0 0 0-.364.885c0 .347.121.642.364.885s.538.365.886.365Zm4.166 0c.348 0 .643-.122.886-.365s.364-.538.364-.885-.121-.642-.364-.885a1.205 1.205 0 0 0-.886-.365c-.347 0-.642.121-.885.365a1.206 1.206 0 0 0-.365.885c0 .347.122.642.365.885s.538.365.885.365ZM6.354 5.333l2.333-3.02c.167-.223.365-.386.594-.49a1.718 1.718 0 0 1 1.438 0c.229.104.427.267.594.49l2.333 3.02 3.541 1.188c.362.11.646.316.855.614.208.299.312.629.312.99 0 .167-.024.333-.073.5a1.55 1.55 0 0 1-.24.48l-2.291 3.25.083 3.416c.014.486-.146.896-.479 1.229-.333.333-.722.5-1.166.5-.028 0-.181-.02-.459-.063L10 16.396l-3.73 1.041a.792.792 0 0 1-.228.052c-.084.008-.16.011-.23.011-.444 0-.833-.167-1.166-.5a1.602 1.602 0 0 1-.48-1.23l.084-3.437-2.27-3.229a1.551 1.551 0 0 1-.24-.479 1.778 1.778 0 0 1-.073-.5c0-.347.1-.67.302-.969.201-.298.482-.51.843-.635l3.542-1.188Z" fill="#A72536"/></g></svg><svg fill="none" viewBox="0 0 24 25" id="heart" xmlns="http://www.w3.org/2000/svg"><path fill-rule="evenodd" clip-rule="evenodd" d="M12.692 7.584a1 1 0 0 1-1.384 0l-.693-.665A4.5 4.5 0 0 0 3 10.166c0 2.383 1.29 4.35 3.152 5.967 1.863 1.618 4.091 2.691 5.423 3.239.278.114.572.114.85 0 1.332-.548 3.56-1.62 5.423-3.239C19.71 14.517 21 12.55 21 10.167a4.5 4.5 0 0 0-7.615-3.248l-.693.665ZM12 5.476a6.5 6.5 0 0 0-11 4.69c0 6.369 6.97 9.886 9.814 11.055a3.096 3.096 0 0 0 2.372 0C16.03 20.051 23 16.535 23 10.167a6.5 6.5 0 0 0-11-4.69Z" fill="#141718"/></svg><svg fill="none" viewBox="0 0 24 24" id="heart-line" xmlns="http://www.w3.org/2000/svg"><path d="M12.001 4.529a5.998 5.998 0 0 1 8.242.228 6 6 0 0 1 .236 8.236l-8.48 8.492-8.478-8.492a6 6 0 0 1 8.48-8.464Zm6.826 1.641a3.998 3.998 0 0 0-5.49-.153l-1.335 1.198-1.336-1.197a4 4 0 0 0-5.686 5.605L12 18.654l7.02-7.03a4 4 0 0 0-.193-5.454Z" fill="#000"/></svg><svg viewBox="0 -960 960 960" fill="#5f6368" id="icon__arrow" xmlns="http://www.w3.org/2000/svg"><path d="M504-480 320-664l56-56 240 240-240 240-56-56 184-184Z"/></svg><svg fill="none" viewBox="0 0 20 20" id="icon__restaurant" xmlns="http://www.w3.org/2000/svg"><mask id="fa" style="mask-type:alpha" maskUnits="userSpaceOnUse" x="0" y="0" width="20" height="20"><path fill="#D9D9D9" d="M0 0h20v20H0z"/></mask><g mask="url(#fa)"><path d="m9.98 11.208-5.75 5.709a.814.814 0 0 1-.574.24.776.776 0 0 1-.593-.24.79.79 0 0 1-.23-.584.79.79 0 0 1 .23-.583l7.958-7.958c-.25-.584-.285-1.243-.104-1.98.18-.736.576-1.395 1.187-1.979.736-.736 1.556-1.166 2.459-1.291.902-.125 1.638.097 2.208.666.57.57.791 1.306.666 2.209-.125.902-.555 1.722-1.291 2.458-.584.611-1.243 1.007-1.98 1.188-.735.18-1.395.145-1.979-.105L11.146 10l5.75 5.75a.815.815 0 0 1 .24.573.776.776 0 0 1-.24.594.79.79 0 0 1-.584.229.79.79 0 0 1-.583-.23l-5.75-5.708Zm-3.876-.833-2.5-2.5c-.583-.583-.951-1.32-1.104-2.208-.153-.89.02-1.68.52-2.375a.844.844 0 0 1 .615-.354.744.744 0 0 1 .657.25l4.479 4.52-2.667 2.667Z" fill="#584B4D"/></g></svg><svg fill="none" viewBox="0 0 22 22" id="icon__search" xmlns="http://www.w3.org/2000/svg"><path d="m21.781 20.13-5.812-5.812a8.776 8.776 0 0 0-1.688-12.29 8.766 8.766 0 1 0 0 13.94l5.813 5.813 1.687-1.65Zm-12.76-4.752a6.346 6.346 0 1 1-.018-12.693 6.346 6.346 0 0 1 .019 12.693Z" fill="#000"/></svg><svg fill="none" viewBox="0 0 24 24" id="id-card-line" xmlns="http://www.w3.org/2000/svg"><path d="M3 6h18v12H3V6ZM2 4a1 1 0 0 0-1 1v14a1 1 0 0 0 1 1h20a1 1 0 0 0 1-1V5a1 1 0 0 0-1-1H2Zm11 4h6v2h-6V8Zm5 4h-5v2h5v-2Zm-7.5-2a2.5 2.5 0 1 1-5 0 2.5 2.5 0 0 1 5 0ZM8 13.5A3.5 3.5 0 0 0 4.5 17h7A3.5 3.5 0 0 0 8 13.5Z" fill="#000"/></svg><svg fill="none" viewBox="0 0 20 20" id="receipt_long" xmlns="http://www.w3.org/2000/svg"><mask id="ia" style="mask-type:alpha" maskUnits="userSpaceOnUse" x="0" y="0" width="20" height="20"><path fill="#D9D9D9" d="M0 0h20v20H0z"/></mask><g mask="url(#ia)"><path d="M5 17.917a2.011 2.011 0 0 1-1.478-.605 2.011 2.011 0 0 1-.605-1.479v-1.33a.73.73 0 0 1 .215-.537.73.73 0 0 1 .538-.216h1.747V2.655c0-.086.035-.144.105-.173.07-.03.137-.018.2.036l.613.508a.356.356 0 0 0 .236.093.356.356 0 0 0 .235-.093l.699-.57a.356.356 0 0 1 .235-.094c.085 0 .163.031.236.093l.699.57a.356.356 0 0 0 .235.094.356.356 0 0 0 .236-.093l.699-.57a.356.356 0 0 1 .235-.094c.085 0 .163.031.236.093l.698.57a.356.356 0 0 0 .236.094.356.356 0 0 0 .236-.093l.698-.57a.356.356 0 0 1 .236-.094c.084 0 .163.031.235.093l.7.57a.356.356 0 0 0 .235.094.356.356 0 0 0 .235-.093l.699-.57a.356.356 0 0 1 .236-.094c.084 0 .162.031.235.093l.699.57a.356.356 0 0 0 .235.094.356.356 0 0 0 .236-.093l.612-.508c.064-.054.131-.066.201-.036.07.029.105.087.105.173v13.178c0 .583-.201 1.075-.605 1.479a2.011 2.011 0 0 1-1.478.605H5Zm10-1.25c.236 0 .434-.08.594-.24.16-.16.24-.358.24-.594V4.167H6.666v9.583h6.746a.73.73 0 0 1 .538.216.73.73 0 0 1 .216.537v1.33c0 .236.08.434.24.594.159.16.357.24.593.24ZM8.285 6.042h3.478c.177 0 .326.06.445.18.12.119.18.267.18.445 0 .177-.06.325-.18.445a.605.605 0 0 1-.445.18H8.285a.605.605 0 0 1-.445-.18.605.605 0 0 1-.18-.445c0-.178.06-.326.18-.446s.268-.18.445-.18Zm0 2.5h3.478c.177 0 .326.06.445.18.12.119.18.267.18.445 0 .177-.06.325-.18.445a.605.605 0 0 1-.445.18H8.285a.605.605 0 0 1-.445-.18.605.605 0 0 1-.18-.445c0-.178.06-.326.18-.446s.268-.18.445-.18Zm5.834-1.138a.71.71 0 0 1-.522-.216.71.71 0 0 1-.216-.521.71.71 0 0 1 .216-.522.71.71 0 0 1 .522-.216.71.71 0 0 1 .521.216.71.71 0 0 1 .216.522.71.71 0 0 1-.216.521.71.71 0 0 1-.521.216Zm0 2.5a.71.71 0 0 1-.522-.216.71.71 0 0 1-.216-.521.71.71 0 0 1 .216-.522.71.71 0 0 1 .522-.216.71.71 0 0 1 .521.216.71.71 0 0 1 .216.522.71.71 0 0 1-.216.521.71.71 0 0 1-.521.216ZM5 16.667h7.917V15h-8.75v.833c0 .236.08.434.24.594.159.16.357.24.593.24Z" fill="#584B4D"/></g></svg><svg fill="none" viewBox="0 0 24 24" id="search" xmlns="http://www.w3.org/2000/svg"><path d="M18.5 18.5 22 22m-1-10.5a9.5 9.5 0 1 0-19 0 9.5 9.5 0 0 0 19 0Z" stroke="#141718" stroke-width="1.5" stroke-linecap="round" stroke-linejoin="round"/></svg><svg fill="none" viewBox="0 0 24 24" id="search-line" xmlns="http://www.w3.org/2000/svg"><path d="m18.031 16.617 4.283 4.282-1.415 1.415-4.282-4.283A8.96 8.96 0 0 1 11 20c-4.968 0-9-4.032-9-9s4.032-9 9-9 9 4.032 9 9a8.96 8.96 0 0 1-1.969 5.617Zm-2.006-.742A6.977 6.977 0 0 0 18 11c0-3.867-3.133-7-7-7s-7 3.133-7 7 3.133 7 7 7a6.977 6.977 0 0 0 4.875-1.975l.15-.15Z" fill="#000"/></svg><svg fill="none" viewBox="0 0 24 24" id="user" xmlns="http://www.w3.org/2000/svg"><path d="M18.559 19.549a7.003 7.003 0 0 0-13.118 0m13.118 0A9.976 9.976 0 0 0 22 12c0-5.523-4.477-10-10-10S2 6.477 2 12a9.977 9.977 0 0 0 3.441 7.549m13.118 0A9.961 9.961 0 0 1 12 22a9.961 9.961 0 0 1-6.559-2.451M15 9a3 3 0 1 1-6 0 3 3 0 0 1 6 0Z" stroke="#141718" stroke-width="1.5" stroke-linejoin="round"/></svg><svg fill="none" viewBox="0 0 24 24" id="user-star-line" xmlns="http://www.w3.org/2000/svg"><path d="M12 14v2a6 6 0 0 0-6 6H4a8 8 0 0 1 8-8Zm0-1c-3.315 0-6-2.685-6-6s2.685-6 6-6 6 2.685 6 6-2.685 6-6 6Zm0-2c2.21 0 4-1.79 4-4s-1.79-4-4-4-4 1.79-4 4 1.79 4 4 4Zm6 10.5-2.939 1.545.561-3.273-2.377-2.317 3.286-.477L18 14l1.47 2.977 3.285.478-2.377 2.318.56 3.272L18 21.5Z" fill="#000"/></svg><svg viewBox="0 0 497 497" id="website" xmlns="http://www.w3.org/2000/svg"><path d="M497 128.5v312c0 11.046-8.954 20-20 20H20c-11.046 0-20-8.954-20-20v-312z" fill="#faf8f8"/><path d="M290.498 294.5c0-23.196-18.804-42-42-42a41.823 41.823 0 0 0-19.482 4.782c-13.386 7.021-19.327 21.053-19.327 37.218 0 23.196 15.613 36.457 38.809 36.457 16.214 0 30.282-3.645 37.282-17.099a41.814 41.814 0 0 0 4.718-19.358z" fill="#dc4955"/><path d="M286.468 312.47c-6.73 14.21-21.2 24.03-37.97 24.03-23.2 0-42-18.8-42-42 0-16.77 9.82-31.24 24.03-37.97-2.59 5.45-4.03 11.54-4.03 17.97 0 23.2 18.8 42 42 42 6.43 0 12.52-1.44 17.97-4.03z" fill="#d82f3c"/><path d="M429.496 294.5c0-23.196-18.804-42-42-42a41.823 41.823 0 0 0-19.482 4.782c-13.386 7.021-19.327 21.053-19.327 37.218 0 23.196 15.613 36.457 38.809 36.457 16.214 0 30.282-3.645 37.282-17.099a41.814 41.814 0 0 0 4.718-19.358z" fill="#b7e546"/><path d="M425.466 312.47c-6.73 14.21-21.2 24.03-37.97 24.03-23.2 0-42-18.8-42-42 0-16.77 9.82-31.24 24.03-37.97-2.59 5.45-4.03 11.54-4.03 17.97 0 23.2 18.8 42 42 42 6.43 0 12.52-1.44 17.97-4.03z" fill="#abd641"/><path d="M497 148.5v-20l-276.011-12.798L0 128.5v312c0 11.046 8.954 20 20 20h15c-8.28 0-15-6.72-15-15v-291a6 6 0 0 1 6-6z" fill="#f0e9e6"/><path d="M497 56.5V129H0V56.5c0-11.046 8.954-20 20-20h457c11.046 0 20 8.954 20 20z" fill="#5d748a"/><g fill="#3f597d"><path d="M227.758 108.5c-8.255 0-14.947-6.716-14.947-15s6.692-15 14.947-15h208.315c8.255 0 14.947 6.716 14.947 15s-6.692 15-14.947 15z"/><ellipse cx="160.869" cy="93.5" rx="14.947" ry="15"/><path d="m171.361 104.184 12.874-12.869-13.139 1.179zM150.592 82.608l12.562-12.516-2.693 10.408z"/><ellipse cx="98.034" cy="93.5" rx="14.947" ry="15"/><path d="m108.553 104.157 12.382-12.499-12.674.836zM87.757 82.608l12.371-12.459L97.626 80.5z"/><ellipse cx="32.947" cy="93.5" rx="14.947" ry="15"/><path d="M43.769 103.846 56.49 90.66l-13.139 1.381zM22.67 82.608 34.292 70.57l-1.753 9.93z"/></g><ellipse cx="173.849" cy="80.5" fill="#b7e546" rx="14.947" ry="15"/><path d="m217.514 82.577 12.971-12.991-3.025 14.276zM446.83 103.915l13.149-13.179-10.185 3.381z" fill="#3f597d"/><ellipse cx="110.946" cy="80.5" fill="#ffbf54" rx="14.947" ry="15"/><ellipse cx="45.495" cy="80.5" fill="#dc4955" rx="14.947" ry="15"/><path d="M240.737 95.5c-8.255 0-14.947-6.716-14.947-15s6.692-15 14.947-15h208.315c8.255 0 14.947 6.716 14.947 15s-6.692 15-14.947 15z" fill="#faf8f8"/><path d="m135.893 215 226.628 2c5.523 0 10-4.477 10-10l3.479-7v-30c0-5.523-4.477-10-10-10H142l-6.107 5c-5.523 0-10 4.477-10 10v30c0 5.523 4.477 10 10 10z" fill="#aad8de"/><path d="M376 200v10c0 5.523-4.477 10-10 10H132c-5.523 0-10-4.477-10-10v-40c0-5.523 4.477-10 10-10h10v33a7 7 0 0 0 7 7z" fill="#94ccd4"/><path d="M151.5 294.5c0-23.196-18.804-42-42-42a41.823 41.823 0 0 0-19.482 4.782c-13.386 7.021-19.327 21.053-19.327 37.218 0 23.196 15.613 36.457 38.809 36.457 16.214 0 30.282-3.645 37.282-17.099A41.814 41.814 0 0 0 151.5 294.5z" fill="#ffbf54"/><path d="M147.47 312.47c-6.73 14.21-21.2 24.03-37.97 24.03-23.2 0-42-18.8-42-42 0-16.77 9.82-31.24 24.03-37.97-2.59 5.45-4.03 11.54-4.03 17.97 0 23.2 18.8 42 42 42 6.43 0 12.52-1.44 17.97-4.03z" fill="#ffa442"/><path d="M149.5 374h-70a7.5 7.5 0 0 1 0-15h70a7.5 7.5 0 0 1 0 15zM149.5 404h-80a7.5 7.5 0 0 1 0-15h80a7.5 7.5 0 0 1 0 15zM149.5 434h-80a7.5 7.5 0 0 1 0-15h80a7.5 7.5 0 0 1 0 15zM288.5 374h-70a7.5 7.5 0 0 1 0-15h70c4.143 0 7.5 3.358 7.5 7.5s-3.357 7.5-7.5 7.5zM288.5 404h-80a7.5 7.5 0 0 1 0-15h80c4.143 0 7.5 3.358 7.5 7.5s-3.357 7.5-7.5 7.5zM288.5 434h-80a7.5 7.5 0 0 1 0-15h80c4.143 0 7.5 3.358 7.5 7.5s-3.357 7.5-7.5 7.5zM427.5 374h-70c-4.143 0-7.5-3.358-7.5-7.5s3.357-7.5 7.5-7.5h70c4.143 0 7.5 3.358 7.5 7.5s-3.357 7.5-7.5 7.5zM427.5 404h-80c-4.143 0-7.5-3.358-7.5-7.5s3.357-7.5 7.5-7.5h80c4.143 0 7.5 3.358 7.5 7.5s-3.357 7.5-7.5 7.5zM427.5 434h-80c-4.143 0-7.5-3.358-7.5-7.5s3.357-7.5 7.5-7.5h80c4.143 0 7.5 3.358 7.5 7.5s-3.357 7.5-7.5 7.5z" fill="#f0e9e6"/></svg></svg>